<svg width="21" height="21" viewBox="0 0 21 21" fill="none" xmlns="http://www.w3.org/2000/svg">
<path fill-rule="evenodd" clip-rule="evenodd" d="M1.88037 10.1337C1.88037 6.53853 1.88037 4.74096 2.73706 3.44622C3.11962 2.86806 3.61476 2.37291 4.19292 1.99036C5.48766 1.13367 7.28523 1.13367 10.8804 1.13367C14.4755 1.13367 16.2731 1.13367 17.5678 1.99036C18.146 2.37291 18.6411 2.86806 19.0237 3.44622C19.8804 4.74096 19.8804 6.53853 19.8804 10.1337C19.8804 13.7288 19.8804 15.5264 19.0237 16.8211C18.6411 17.3993 18.146 17.8944 17.5678 18.277C16.2731 19.1337 14.4755 19.1337 10.8804 19.1337C7.28523 19.1337 5.48766 19.1337 4.19292 18.277C3.61476 17.8944 3.11962 17.3993 2.73706 16.8211C1.88037 15.5264 1.88037 13.7288 1.88037 10.1337ZM15.5396 10.1339C15.5396 12.7072 13.4535 14.7933 10.8802 14.7933C8.30689 14.7933 6.2208 12.7072 6.2208 10.1339C6.2208 7.56057 8.30689 5.47449 10.8802 5.47449C13.4535 5.47449 15.5396 7.56057 15.5396 10.1339ZM10.8802 13.2169C12.5829 13.2169 13.9632 11.8366 13.9632 10.1339C13.9632 8.4312 12.5829 7.05089 10.8802 7.05089C9.17752 7.05089 7.79721 8.4312 7.79721 10.1339C7.79721 11.8366 9.17752 13.2169 10.8802 13.2169ZM15.7236 6.33522C16.3283 6.33522 16.8185 5.84505 16.8185 5.24039C16.8185 4.63574 16.3283 4.14557 15.7236 4.14557C15.119 4.14557 14.6288 4.63574 14.6288 5.24039C14.6288 5.84505 15.119 6.33522 15.7236 6.33522Z" fill="#595667"/>
</svg>
