<svg width="21" height="21" viewBox="0 0 21 21" fill="none" xmlns="http://www.w3.org/2000/svg">
<path d="M1.88037 3.12501C1.88037 2.5478 2.08308 2.07161 2.48848 1.69644C2.89388 1.32125 3.42092 1.13367 4.06956 1.13367C4.70663 1.13367 5.22206 1.31836 5.61589 1.68778C6.02129 2.06873 6.224 2.56511 6.224 3.17696C6.224 3.73107 6.02709 4.19282 5.63327 4.56224C5.22787 4.94319 4.69504 5.13367 4.03481 5.13367H4.01744C3.38037 5.13367 2.86493 4.94319 2.4711 4.56224C2.07728 4.18129 1.88037 3.7022 1.88037 3.12501ZM2.10624 18.2765V6.70942H5.96338V18.2765H2.10624ZM8.10045 18.2765H11.9576V11.8176C11.9576 11.4136 12.0039 11.1019 12.0966 10.8826C12.2587 10.4901 12.5049 10.1582 12.835 9.88691C13.1651 9.61562 13.5792 9.47998 14.0773 9.47998C15.3746 9.47998 16.0232 10.3516 16.0232 12.0947V18.2765H19.8804V11.6445C19.8804 9.93597 19.475 8.64016 18.6642 7.75704C17.8533 6.87392 16.7819 6.43237 15.4499 6.43237C13.9557 6.43237 12.7916 7.07306 11.9576 8.35444V8.38908H11.9402L11.9576 8.35444V6.70942H8.10045C8.12361 7.07882 8.1352 8.22745 8.1352 10.1553C8.1352 12.0832 8.12361 14.7902 8.10045 18.2765Z" fill="#595667"/>
</svg>
