<svg width="21" height="21" viewBox="0 0 21 21" fill="none" xmlns="http://www.w3.org/2000/svg">
<path d="M13.9074 3.13691V3.13367H14.7514L15.0598 3.19526C15.2654 3.23525 15.4521 3.28765 15.6198 3.35248C15.7875 3.41731 15.9498 3.49296 16.1067 3.5794C16.2636 3.66584 16.4059 3.75391 16.5336 3.8436C16.6602 3.93221 16.7738 4.02622 16.8744 4.12562C16.974 4.22611 17.1292 4.25205 17.3402 4.20342C17.5512 4.1548 17.7785 4.08726 18.0219 4.00082C18.2654 3.91438 18.5062 3.81713 18.7442 3.70907C18.9823 3.601 19.1273 3.53239 19.1792 3.50322C19.2301 3.47297 19.2571 3.45677 19.2604 3.45459L19.2636 3.44973L19.2798 3.44163L19.2961 3.43352L19.3123 3.42542L19.3285 3.41731L19.3318 3.41245L19.3366 3.40921L19.3415 3.40597L19.3448 3.40111L19.361 3.39624L19.3772 3.393L19.374 3.41731L19.3691 3.44163L19.361 3.46594L19.3529 3.49025L19.3448 3.50646L19.3366 3.52267L19.3285 3.54698C19.3231 3.56319 19.3177 3.5848 19.3123 3.61182C19.3069 3.63883 19.2555 3.74688 19.1581 3.93598C19.0607 4.12509 18.939 4.31688 18.7929 4.51138C18.6468 4.70588 18.5159 4.85283 18.4001 4.95225C18.2833 5.05274 18.2059 5.12297 18.168 5.16296C18.1302 5.20402 18.0842 5.24183 18.0301 5.27642L17.9489 5.32991L17.9327 5.33801L17.9164 5.34611L17.9132 5.35098L17.9083 5.35422L17.9035 5.35746L17.9002 5.36232L17.884 5.37043L17.8677 5.37853L17.8645 5.38339L17.8596 5.38664L17.8548 5.38988L17.8515 5.39474L17.8483 5.3996L17.8434 5.40284L17.8385 5.40609L17.8353 5.41095H17.9164L18.3709 5.3137C18.6739 5.24886 18.9633 5.17053 19.2393 5.07868L19.6775 4.9328L19.7262 4.91659L19.7505 4.90849L19.7668 4.90038L19.783 4.89228L19.7992 4.88418L19.8154 4.87607L19.8479 4.87121L19.8804 4.86797V4.90038L19.8723 4.90363L19.8641 4.90849L19.8609 4.91335L19.856 4.91659L19.8512 4.91983L19.8479 4.9247L19.8447 4.92956L19.8398 4.9328L19.8349 4.93604L19.8317 4.9409L19.8284 4.94577L19.8236 4.94901L19.8154 4.96522L19.8073 4.98143L19.8025 4.98467C19.8003 4.98791 19.7316 5.07975 19.5963 5.26021C19.4611 5.44174 19.388 5.53358 19.3772 5.53575C19.3664 5.53899 19.3512 5.5552 19.3318 5.58438C19.3134 5.61462 19.1987 5.73512 18.9877 5.94583C18.7767 6.15654 18.57 6.344 18.3677 6.50826C18.1643 6.67358 18.0614 6.87672 18.0593 7.11769C18.056 7.35758 18.0436 7.62881 18.0219 7.93136C18.0003 8.23392 17.9597 8.56078 17.9002 8.91196C17.8407 9.26315 17.7487 9.66026 17.6243 10.1033C17.4999 10.5463 17.3484 10.9785 17.1698 11.4C16.9913 11.8214 16.8046 12.1996 16.6099 12.5345C16.4151 12.8695 16.2365 13.1532 16.0742 13.3855C15.9119 13.6178 15.7469 13.8366 15.5792 14.0419C15.4115 14.2472 15.1994 14.4785 14.943 14.7356C14.6854 14.9917 14.5448 15.1322 14.521 15.1571C14.4961 15.1808 14.39 15.2695 14.2028 15.4229C14.0167 15.5774 13.8165 15.7319 13.6023 15.8864C13.3891 16.0399 13.1933 16.1679 13.0147 16.2706C12.8362 16.3732 12.6209 16.4905 12.3687 16.6223C12.1177 16.7552 11.8461 16.8784 11.554 16.9919C11.2618 17.1053 10.9534 17.2107 10.6288 17.3079C10.3042 17.4052 9.99039 17.4808 9.6874 17.5348C9.38444 17.5889 9.04088 17.6348 8.65675 17.6726L8.08055 17.7293V17.7374H7.02555V17.7293L6.88758 17.7212C6.79562 17.7158 6.71987 17.7104 6.66035 17.705C6.60085 17.6996 6.37631 17.6699 5.98677 17.6159C5.59723 17.5619 5.29156 17.5078 5.06973 17.4538C4.84792 17.3998 4.51788 17.2971 4.07965 17.1458C3.64142 16.9946 3.26648 16.8417 2.95485 16.6871C2.64431 16.5337 2.44954 16.4364 2.37054 16.3954C2.29263 16.3554 2.20499 16.3057 2.1076 16.2463L1.96153 16.1571L1.9583 16.1523L1.95341 16.149L1.94854 16.1458L1.94529 16.1409L1.92906 16.1328L1.91283 16.1247L1.9096 16.1198L1.90472 16.1166L1.89985 16.1134L1.8966 16.1085L1.89337 16.1036L1.88849 16.1004H1.88037V16.068L1.8966 16.0712L1.91283 16.0761L1.98587 16.0842C2.03456 16.0896 2.16712 16.0977 2.38353 16.1085C2.59995 16.1193 2.82988 16.1193 3.07334 16.1085C3.3168 16.0977 3.56568 16.0734 3.81996 16.0356C4.07424 15.9977 4.37452 15.9329 4.72077 15.8411C5.06704 15.7492 5.38516 15.6401 5.67516 15.5136C5.96407 15.3862 6.16965 15.2911 6.29193 15.2284C6.41311 15.1668 6.59814 15.0522 6.84701 14.8848L7.22032 14.6335L7.22356 14.6287L7.22843 14.6254L7.23332 14.6222L7.23655 14.6173L7.23979 14.6125L7.24466 14.6092L7.24955 14.606L7.25278 14.6011L7.26901 14.5963L7.28524 14.593L7.28849 14.5768L7.29336 14.5606L7.29824 14.5574L7.30147 14.5525L7.17162 14.5444C7.08507 14.539 7.0012 14.5336 6.92005 14.5282C6.83889 14.5228 6.71176 14.4985 6.53862 14.4552C6.3655 14.412 6.17885 14.3472 5.97866 14.2607C5.77848 14.1743 5.58371 14.0716 5.39435 13.9528C5.205 13.8339 5.06811 13.735 4.98371 13.6562C4.90039 13.5783 4.79218 13.4681 4.65909 13.3255C4.52709 13.1818 4.41238 13.0343 4.315 12.883C4.21761 12.7318 4.12456 12.5572 4.03584 12.3595L3.90111 12.0645L3.893 12.0402L3.88488 12.0159L3.88001 11.9997L3.87676 11.9835L3.90111 11.9867L3.92546 11.9916L4.104 12.0159C4.22303 12.0321 4.40969 12.0375 4.66396 12.0321C4.91825 12.0267 5.09408 12.0159 5.19146 11.9997C5.28885 11.9835 5.34837 11.9726 5.37 11.9672L5.40246 11.9591L5.44304 11.951L5.48362 11.9429L5.48686 11.9381L5.49173 11.9348L5.49662 11.9316L5.49985 11.9267L5.46739 11.9186L5.43492 11.9105L5.40246 11.9024L5.37 11.8943L5.33754 11.8862C5.3159 11.8808 5.27804 11.87 5.22392 11.8538C5.16983 11.8376 5.02375 11.7781 4.78569 11.6755C4.54765 11.5729 4.35828 11.4729 4.21761 11.3756C4.07659 11.2781 3.94213 11.1714 3.81509 11.0563C3.68849 10.9396 3.54945 10.7894 3.39795 10.6057C3.24647 10.4221 3.11122 10.2086 2.99218 9.96551C2.87316 9.72238 2.78389 9.49007 2.72437 9.26855C2.6651 9.04833 2.62599 8.82319 2.60753 8.5959L2.5783 8.25552L2.59453 8.25877L2.61076 8.26363L2.62699 8.27173L2.64322 8.27984L2.65945 8.28794L2.67568 8.29605L2.92726 8.4095C3.09499 8.48515 3.30328 8.54998 3.55215 8.604C3.80103 8.65803 3.9498 8.68775 3.9985 8.69315L4.07153 8.70126H4.21761L4.21438 8.69639L4.2095 8.69315L4.20463 8.68991L4.20138 8.68505L4.19815 8.68018L4.19327 8.67694L4.1884 8.6737L4.18515 8.66884L4.16892 8.66073L4.15269 8.65263L4.14946 8.64777L4.14457 8.64453L4.1397 8.64128L4.13646 8.63642L4.12023 8.62832L4.104 8.62021L4.10077 8.61535C4.09752 8.61318 4.05099 8.57861 3.96116 8.51162C3.87243 8.44354 3.77938 8.35548 3.68199 8.24742C3.58461 8.13936 3.48722 8.0259 3.38984 7.90704C3.29227 7.78791 3.20538 7.66046 3.13015 7.52615C3.05441 7.39108 2.97433 7.21926 2.88993 7.01072C2.80662 6.80325 2.74332 6.59416 2.70003 6.38345C2.65676 6.17274 2.63241 5.96474 2.62699 5.75943C2.62158 5.55412 2.62699 5.37853 2.64322 5.23266C2.65945 5.08678 2.69191 4.92199 2.74061 4.7383C2.7893 4.55461 2.85964 4.36011 2.95161 4.1548L3.08957 3.84684L3.09768 3.82252L3.1058 3.79821L3.11068 3.79497L3.11391 3.79011L3.11716 3.78525L3.12203 3.782L3.12692 3.78525L3.13015 3.79011L3.13339 3.79497L3.13826 3.79821L3.14315 3.80145L3.14638 3.80632L3.14962 3.81118L3.15449 3.81442L3.16261 3.83063L3.17072 3.84684L3.17561 3.85008L3.17884 3.85494L3.39795 4.09807C3.54403 4.26015 3.71717 4.44115 3.91734 4.64105C4.11753 4.84095 4.22844 4.94468 4.25007 4.95225C4.27173 4.96089 4.29877 4.98574 4.33123 5.02681C4.36369 5.0668 4.4719 5.16242 4.65584 5.3137C4.8398 5.46497 5.08056 5.64057 5.37812 5.84047C5.67569 6.04037 6.00571 6.23758 6.3682 6.43208C6.7307 6.62658 7.12024 6.80216 7.53682 6.95885C7.95342 7.11554 8.24557 7.21819 8.41328 7.26681C8.58101 7.31544 8.86775 7.37756 9.27352 7.45321C9.67929 7.52885 9.98498 7.57748 10.1906 7.59908C10.3962 7.62069 10.5368 7.63312 10.6126 7.63636L10.7262 7.6396L10.7229 7.61529L10.7181 7.59098L10.6856 7.38837C10.664 7.25331 10.6531 7.06421 10.6531 6.82108C10.6531 6.57795 10.6721 6.35374 10.7099 6.14843C10.7478 5.94312 10.8046 5.73512 10.8804 5.52441C10.9561 5.3137 11.0302 5.14458 11.1027 5.01708C11.1763 4.89066 11.2726 4.7464 11.3916 4.58432C11.5107 4.42224 11.6649 4.25475 11.8542 4.08186C12.0436 3.90896 12.26 3.75498 12.5035 3.61992C12.7469 3.48485 12.9715 3.38219 13.177 3.31196C13.3826 3.24173 13.5558 3.19579 13.6964 3.17419C13.8371 3.15258 13.9074 3.14015 13.9074 3.13691Z" fill="#595667"/>
</svg>
