<svg width="21" height="21" viewBox="0 0 21 21" fill="none" xmlns="http://www.w3.org/2000/svg">
<path d="M11.8013 16.5471L7.90324 16.4743C6.64113 16.4489 5.37589 16.4995 4.13853 16.2365C2.25622 15.8436 2.12287 13.9168 1.98333 12.3006C1.79107 10.0284 1.8655 7.71502 2.22833 5.46182C2.43316 4.19753 3.23925 3.44313 4.48584 3.36103C8.69401 3.0631 12.9302 3.09841 17.129 3.23741C17.5724 3.25015 18.0189 3.31979 18.4562 3.39906C20.6146 3.7857 20.6673 5.96916 20.8072 7.80723C20.9467 9.66426 20.8878 11.5308 20.6211 13.3752C20.4071 14.9023 19.9978 16.1829 18.2701 16.3066C16.1055 16.4682 13.9906 16.5984 11.8199 16.5569C11.82 16.5471 11.8075 16.5471 11.8013 16.5471ZM9.50962 12.6809C11.1408 11.7238 12.7409 10.7826 14.3628 9.83195C12.7286 8.87484 11.1315 7.93368 9.50962 6.98298V12.6809Z" fill="#595667"/>
</svg>
